<mxfile host="app.diagrams.net" modified="2023-08-04T08:58:58.133Z" agent="Mozilla/5.0 (Windows NT 10.0; Win64; x64; rv:109.0) Gecko/20100101 Firefox/115.0" version="21.6.6" etag="pRFewqRmedBt7iF9yQ-5" type="github">
  <diagram name="第 1 页" id="Pqd2UeZD5t9PHbP2GUy9">
    <mxGraphModel>
      <root>
        <mxCell id="0" />
        <mxCell id="1" parent="0" />
      </root>
    </mxGraphModel>
  </diagram>
</mxfile>
